<?xml version="1.0" encoding="UTF-8" standalone="no"?>
<!DOCTYPE svg PUBLIC "-//W3C//DTD SVG 1.1//EN" "http://www.w3.org/Graphics/SVG/1.1/DTD/svg11.dtd">
<svg width="100%" height="100%" viewBox="0 0 1000 400" version="1.1" xmlns="http://www.w3.org/2000/svg" xmlns:xlink="http://www.w3.org/1999/xlink" xml:space="preserve" xmlns:serif="http://www.serif.com/" style="fill-rule:evenodd;clip-rule:evenodd;stroke-linejoin:round;stroke-miterlimit:2;">
    <g transform="matrix(1.16332,0,0,0.909375,73.05,84.2341)">
        <path d="M0,33.802C0.806,34.646 1.414,35.611 1.829,36.693C0.624,36.847 -0.579,37.02 -1.779,37.214C-1.993,35.778 -1.403,34.639 0,33.802M-8.554,34.832C-7.359,35.037 -6.404,36.627 -5.652,37.911C-7.23,38.225 -8.801,38.573 -10.362,38.956C-10.748,37.144 -10.908,34.429 -8.554,34.832M7.463,33.433C7.882,34.312 8.224,35.219 8.508,36.15C7.109,36.211 5.712,36.29 4.318,36.413C4.778,35.834 5.1,35.134 5.069,34.657C4.443,32.449 5.241,32.041 7.463,33.433M16.424,31.169C17.269,32.359 17.646,33.964 17.786,35.513C15.721,35.794 13.644,35.923 11.563,36.017C11.831,35.582 11.984,35.099 11.925,34.657C11.564,31.982 13.942,27.677 16.424,31.169M16.224,14.758C14.244,14.367 12.416,12.598 11.485,10.685C11.926,10.682 12.368,10.682 12.808,10.673C13.537,10.655 14.265,10.676 14.991,10.739C17.431,10.874 17.842,12.214 16.224,14.758M2.229,12.709C2.205,12.16 2.143,11.624 2.044,11.115C3.938,10.989 5.792,10.889 7.586,10.797L7.586,10.8C7.624,11.002 7.673,11.207 7.729,11.413C8.705,16.37 3.698,15.535 2.229,12.709M-3.663,16.97C-5.629,16.417 -7.336,14.103 -7.796,12.209C-5.715,11.854 -3.59,11.59 -1.46,11.395C-1.478,11.459 -1.495,11.524 -1.503,11.586C-1.673,12.889 -1.5,13.997 -1.095,14.921C-1.153,16.31 -1.714,17.519 -3.663,16.97M-12.949,18.338C-14.783,17.93 -15.216,15.663 -15.146,14.031C-13.822,13.565 -12.425,13.187 -10.997,12.855C-11.143,13.177 -11.212,13.513 -11.166,13.826C-11.015,14.843 -10.104,18.972 -12.949,18.338M65.202,-50.619C51.874,-69.771 31.114,-79.246 9.081,-80.046C10.149,-83.748 11.102,-87.474 11.336,-91.345C11.487,-93.829 8.084,-92.253 7.974,-90.444C7.76,-86.903 6.902,-83.492 5.927,-80.107C3.727,-80.104 1.517,-80.006 -0.697,-79.834C-0.476,-83.266 -0.194,-86.694 -0.157,-90.136C-0.13,-92.629 -3.5,-91.057 -3.52,-89.234C-3.555,-85.987 -3.807,-82.751 -4.021,-79.512C-6.984,-79.17 -9.948,-78.68 -12.899,-78.04C-14.306,-81.574 -15.583,-85.149 -16.103,-88.948C-16.406,-91.162 -19.671,-88.936 -19.433,-87.196C-18.955,-83.702 -17.854,-80.381 -16.591,-77.11C-30.373,-72.966 -38.965,-62.539 -37.75,-47.331C-37.063,-38.742 -32.506,-30.232 -29.819,-22.159C-26.904,-13.397 -23.873,-1.777 -31.698,5.332C-32.32,5.897 -32.547,6.668 -32.484,7.307C-32.679,7.768 -32.729,8.254 -32.533,8.672C-30.069,13.929 -24.156,14.679 -18.455,14.343C-18.964,18.175 -16.499,23.184 -11.871,21.943C-9.991,21.439 -8.887,20.243 -8.274,18.755C-6.511,20.361 -4.182,21.217 -1.817,20.39C-0.345,19.876 0.679,18.804 1.331,17.486C4.104,18.949 8.145,18.364 10.123,15.642C11.574,17.253 13.477,18.436 15.475,18.436C19.076,18.436 21.376,14.986 20.886,11.495C20.851,11.244 20.793,11.024 20.736,10.799C26.58,11.339 32.398,13.187 35.364,18.453C37.142,21.611 37.689,26.45 35.387,29.454C33.099,32.441 28.519,33.376 25.061,34.097C23.793,34.363 22.493,34.569 21.172,34.74C20.885,30.576 19.232,25.85 14.463,25.878C12.168,25.892 10.612,27.54 9.667,29.634C8.792,28.555 7.618,27.915 5.976,28.356C4.277,28.812 3.21,29.786 2.565,31.027C0.081,29.042 -2.617,30.557 -4.067,33.573C-5.787,31.583 -7.809,30.415 -10.881,32.021C-14.272,33.794 -14.317,38.454 -13.395,41.769C-15.29,43.173 -17.022,44.915 -18.543,47.096C-28.645,61.583 -19.446,82.498 -7.175,92.445C-2.623,96.134 2.65,98.554 8.239,99.879C5.794,105.833 6.418,112.51 7.756,118.688C7.836,119.057 3.314,120.597 2.696,121.115C0.821,122.69 -0.118,124.252 -0.307,126.711C-0.327,126.973 -0.182,127.15 0.076,127.174C4.827,127.631 9.525,126.698 14.279,127.035C14.648,127.062 15.054,126.615 15.058,126.262C15.095,122.131 14.695,118.036 14.432,113.918C14.179,109.976 13.014,104.829 14.285,100.877C18.023,101.246 21.833,101.185 25.608,100.732C23.969,106.189 24.595,112.123 25.794,117.657C25.874,118.026 21.351,119.567 20.734,120.085C18.859,121.659 17.92,123.221 17.73,125.68C17.71,125.942 17.855,126.118 18.113,126.143C22.864,126.602 27.562,125.669 32.316,126.004C32.686,126.031 33.091,125.584 33.095,125.231C33.132,121.1 32.732,117.005 32.469,112.887C32.209,108.822 30.973,103.471 32.448,99.476C38.966,97.87 45.163,95.152 50.43,91.566C65.247,81.477 73.667,64.342 78.511,47.527C87.716,15.57 84.506,-22.883 65.202,-50.619" style="fill:rgb(30,10,65);fill-rule:nonzero;"/>
    </g>
    <g transform="matrix(1.16332,0,0,0.909375,81.8754,99.117)">
        <path d="M0,-5.565L0,-5.569C-1.794,-5.477 -3.648,-5.378 -5.542,-5.251C-5.443,-4.742 -5.382,-4.206 -5.357,-3.657C-3.888,-0.831 1.119,0.004 0.143,-4.953C0.086,-5.159 0.038,-5.364 0,-5.565" style="fill:rgb(255,228,153);fill-rule:nonzero;"/>
    </g>
    <g transform="matrix(0.0179155,-0.909267,-1.16318,-0.0140047,87.8253,95.4638)">
        <path d="M1.645,-2.265C1.696,-1.537 1.707,-0.809 1.677,-0.08C1.662,0.358 1.655,0.8 1.645,1.241C-0.253,0.281 -1.995,-1.573 -2.355,-3.56C0.213,-5.139 1.547,-4.706 1.645,-2.265" style="fill:rgb(255,228,153);fill-rule:nonzero;"/>
    </g>
    <g transform="matrix(-1.09594,-0.304994,-0.390165,0.856703,55.3075,100.818)">
        <path d="M-2.203,-6.497C-0.969,-5.706 0.22,-4.881 1.31,-3.997C0.83,-2.436 -0.338,-0.447 -2.203,-0.677C-5.097,-1.035 -2.853,-4.619 -2.371,-5.525C-2.221,-5.805 -2.173,-6.145 -2.203,-6.497" style="fill:rgb(255,228,153);fill-rule:nonzero;"/>
    </g>
    <g transform="matrix(1.16332,0,0,0.909375,71.301,99.992)">
        <path d="M0,-5.742C0.008,-5.804 0.026,-5.869 0.043,-5.933C-2.087,-5.738 -4.211,-5.474 -6.293,-5.119C-5.833,-3.225 -4.125,-0.911 -2.16,-0.358C-0.21,0.191 0.351,-1.018 0.409,-2.407C0.004,-3.331 -0.17,-4.439 0,-5.742" style="fill:rgb(255,228,153);fill-rule:nonzero;"/>
    </g>
    <g transform="matrix(1.16332,0,0,0.909375,66.475,116.494)">
        <path d="M0,2.437C-0.752,1.153 -1.708,-0.437 -2.902,-0.642C-5.256,-1.045 -5.096,1.669 -4.71,3.482C-3.149,3.099 -1.579,2.75 0,2.437" style="fill:rgb(255,228,153);fill-rule:nonzero;"/>
    </g>
    <g transform="matrix(0.800008,0.660207,0.844572,-0.625371,76.988,115.344)">
        <path d="M2.241,-0.838C3.111,0.259 4.015,1.328 4.931,2.385C4.061,2.819 3.166,3.195 2.241,3.495C-0.298,2.838 -0.551,1.978 1.483,0.915C1.851,0.609 2.137,-0.106 2.241,-0.838" style="fill:rgb(255,228,153);fill-rule:nonzero;"/>
    </g>
    <g transform="matrix(0.821405,0.643951,0.823777,-0.642097,84.1298,113.868)">
        <path d="M3.868,-0.978C5.27,0.562 6.646,2.124 7.905,3.785C6.71,4.78 5.307,5.646 3.868,5.888C-0.358,6.595 1.011,1.872 3.161,0.238C3.515,-0.031 3.749,-0.481 3.868,-0.978" style="fill:rgb(255,228,153);fill-rule:nonzero;"/>
    </g>
    <g transform="matrix(1.16332,0,0,0.909375,75.1772,115.446)">
        <path d="M0,2.37C-0.415,1.288 -1.022,0.323 -1.829,-0.521C-3.232,0.316 -3.822,1.455 -3.608,2.891C-2.408,2.697 -1.205,2.524 0,2.37" style="fill:rgb(255,228,153);fill-rule:nonzero;"/>
    </g>
    <g transform="matrix(1.16332,0,0,0.909375,55.7864,66.0439)">
        <path d="M0,3.825C1.468,6.701 4.294,7.735 6.328,4.778C10.553,-1.371 -0.621,-3.91 0,3.825" style="fill:rgb(255,228,153);fill-rule:nonzero;"/>
    </g>
    <g transform="matrix(1.16332,0,0,0.909375,88.0345,80.0625)">
        <path d="M0,-34.385C-10.19,-29.183 -12.695,-19.571 -2.22,-12.366C19.566,2.599 28.559,-36.984 1.156,-34.788L0,-34.385Z" style="fill:rgb(255,228,153);fill-rule:nonzero;"/>
    </g>
    <g transform="matrix(1.49217,0,0,0.97852,355.936,18.6266)">
        <path d="M0,166.234C0.052,153.765 1.048,141.32 1.098,128.848C1.098,128.745 1.089,128.651 1.073,128.567C2.017,127.882 2.916,127.135 3.757,126.309C9.049,121.107 9.746,113.547 9.692,106.523C9.599,94.087 8.465,81.652 7.867,69.235C7.109,53.479 8.979,37.93 8.955,22.202C8.938,11.48 6.321,0.908 -0.621,-7.53C-6.398,-14.549 -13.273,-18.061 -22.196,-18.815C-29.336,-19.418 -37.114,-18.897 -43.681,-15.83C-49.753,-12.995 -52.062,-7.149 -50.104,-0.869C-49.988,-0.495 -49.774,-0.248 -49.355,-0.24C-45.386,-0.157 -41.736,-1.299 -37.927,-2.287C-31.562,-3.937 -25.992,-2.002 -21.92,3.063C-16.201,10.175 -16.471,20.984 -19.323,29.158C-20.867,33.584 -24.982,40.803 -30.578,38.684C-34.09,37.354 -36.299,32.911 -37.912,29.81C-41.593,22.732 -42.578,14.636 -46.71,7.783C-54.223,-4.68 -71.489,-4.362 -81.32,5.049C-89.585,12.96 -96.541,29.728 -84.168,37.228C-83.728,37.496 -83.18,37.41 -82.799,37.05C-77.41,31.962 -76.473,24.502 -72.764,18.387C-69.907,13.678 -64.887,17.68 -61.991,20.172C-56.329,25.046 -52.719,31.67 -50.063,38.547C-46.396,48.046 -45.284,57.653 -45.33,67.318C-49.638,67.219 -53.733,66.505 -57.991,67.879C-63.738,69.731 -64.043,64.046 -68.77,63.326C-71.289,62.942 -72.83,64.059 -74.565,65.763C-78.124,69.256 -87.147,63.925 -91.475,63.21C-92.423,63.052 -93.449,64.007 -93.277,64.999C-92.947,66.895 -92.054,68.09 -90.808,69.248C-91.984,69.802 -93.136,70.392 -94.264,71.075C-94.762,71.376 -95.966,73.099 -94.732,73.335C-93,73.666 -91.327,73.682 -89.621,73.566C-90.671,75.011 -91.367,76.543 -91.628,78.545C-91.738,79.394 -90.908,79.594 -90.283,79.307C-88.152,78.33 -85.182,74.039 -82.883,74.475C-80.553,74.918 -79.524,77.363 -76.789,77.188C-75.463,77.103 -74.405,76.851 -73.505,75.778C-69.447,70.942 -69.233,75.53 -65.951,76.655C-63.26,77.578 -61.013,77.304 -58.303,76.553C-54.354,75.46 -51.238,75.156 -47.184,75.463C-46.576,75.508 -46.058,75.451 -45.603,75.324C-45.684,76.682 -45.779,78.041 -45.888,79.401C-49.207,77.389 -53.444,78.077 -56.638,80.397C-57.798,81.24 -58.785,82.179 -59.824,83.167C-62.486,85.699 -64.936,83.486 -67.045,82.382C-68.569,81.587 -70.959,81.57 -72.33,82.684C-72.844,83.102 -73.232,83.642 -73.616,84.172C-75.513,86.788 -77.726,86.508 -80.457,86.1C-82.328,85.821 -85.604,84.983 -87.314,86.374C-89.955,88.519 -86.781,90.786 -84.7,92.085C-85.425,93.038 -86.076,94.022 -86.721,95.077C-87.158,95.792 -86.84,96.82 -85.873,96.585C-84.301,96.203 -82.879,95.607 -81.395,95.041C-81.396,97.485 -81.231,99.703 -79.63,101.786C-78.997,102.609 -78.06,101.886 -77.623,101.248C-76.034,98.922 -74.822,96.443 -73.806,93.841C-72.521,93.753 -71.515,93.345 -70.381,92.436C-67.214,89.897 -66.389,92.87 -63.63,93.151C-61.647,93.354 -59.873,92.616 -58.228,91.502C-54.282,88.83 -52.402,86.225 -47.638,89.811C-47.419,89.976 -47.153,90.002 -46.895,89.948C-48.437,104.608 -50.179,119.304 -47.395,133.858C-47.435,134.12 -47.377,134.365 -47.188,134.55C-47.092,134.693 -46.965,134.78 -46.815,134.809C-42.541,137.612 -37.01,138.002 -31.562,137.564C-28.021,152.251 -28.331,168.598 -33.446,182.845C-33.582,183.225 -33.527,183.94 -33.017,184.036C-27.237,185.122 -21.47,185.652 -15.592,185.184C-14.751,185.118 -14.195,184.432 -14.045,183.645C-13.502,180.82 -13.886,178.693 -15.9,176.588C-17.106,175.327 -23.45,174.427 -23.445,173.43C-23.394,161.038 -22.41,148.67 -22.35,136.276C-21.855,136.189 -21.37,136.103 -20.896,136.021C-16.541,135.264 -11.902,134.393 -7.549,132.894C-4.627,146.911 -5.178,162.214 -10.001,175.65C-10.137,176.03 -10.082,176.745 -9.571,176.84C-3.792,177.927 1.976,178.458 7.854,177.99C8.694,177.923 9.25,177.238 9.4,176.451C9.943,173.626 9.56,171.497 7.545,169.391C6.339,168.13 -0.005,167.232 0,166.234" style="fill:rgb(30,10,65);fill-rule:nonzero;"/>
    </g>
    <g transform="matrix(1.49217,0,0,0.97852,361.673,121.138)">
        <path d="M0,-12.714C-0.136,-13.083 -0.636,-13.125 -0.95,-13.047C-2.289,-12.715 -3.62,-12.355 -4.966,-12.056C-7.585,-11.474 -7.131,-14.639 -7.096,-16.319C-7.088,-16.665 -7.192,-17.099 -7.589,-17.197C-9.207,-17.601 -8.973,-17.598 -10.623,-17.515C-11.316,-17.48 -11.894,-16.927 -12.106,-16.288C-12.763,-14.316 -13.198,-12.457 -13.422,-10.462C-14.253,-10.388 -15.085,-10.328 -15.923,-10.334C-17.873,-10.346 -17.918,-13.609 -18.177,-14.95C-18.222,-15.181 -18.395,-15.494 -18.659,-15.536C-23.071,-16.235 -23.849,-12.569 -24.397,-9.099C-25.563,-8.991 -26.727,-8.86 -27.895,-8.762C-31.499,-8.461 -31.654,-11.254 -32.015,-13.843C-32.071,-14.249 -32.394,-14.43 -32.764,-14.471C-36.552,-14.887 -37.461,-12.495 -37.609,-9.504C-39.41,-9.528 -41.202,-9.598 -43.004,-9.766C-43.539,-9.816 -44.059,-9.368 -44.338,-8.841C-44.397,-8.746 -44.451,-8.647 -44.487,-8.539C-45.202,-6.395 -45.093,-4.1 -45.104,-1.862C-45.107,-1.401 -44.889,-0.919 -44.345,-0.943C-42.651,-1.016 -35.351,-2.363 -35.611,0.341C-35.748,1.755 -35.726,2.623 -34.335,3.205C-30.312,4.887 -30.089,0.78 -30.527,-1.973C-28.734,-2.16 -26.944,-2.331 -25.137,-2.401C-23.589,-2.461 -23.884,0.02 -23.783,0.921C-23.738,1.324 -23.396,1.513 -23.034,1.549C-21.655,1.687 -20.48,1.538 -19.147,1.231C-18.399,1.06 -17.8,0.195 -17.9,-0.56C-18.062,-1.497 -18.128,-2.443 -18.151,-3.394C-15.187,-3.887 -12.316,-4.393 -11.605,-0.741C-11.536,-0.386 -11.239,-0.087 -10.856,-0.112C-9.437,-0.205 -8.089,-0.407 -6.694,-0.706C-5.955,-0.863 -5.333,-1.753 -5.447,-2.497C-5.669,-3.562 -5.772,-4.636 -5.771,-5.718C-1.6,-6.056 1.833,-7.741 0,-12.714" style="fill:rgb(255,228,153);fill-rule:nonzero;"/>
    </g>
    <g transform="matrix(1.49217,0,0,0.97852,354.24,67.9082)">
        <path d="M0,6.811C-0.74,5.713 -1.54,4.677 -2.367,3.668C-1.353,1.878 -0.417,-0.053 0.035,-2.014C0.441,-3.78 -1.838,-3.351 -2.145,-2.02C-2.47,-0.606 -3.083,0.736 -3.759,2.03C-5.046,0.615 -6.426,-0.716 -7.913,-1.97C-8.911,-2.812 -10.69,-0.693 -9.692,0.149C-8.042,1.54 -6.536,3.031 -5.14,4.623C-5.779,5.837 -6.607,7.254 -7.61,7.705C-8.854,8.261 -8.883,10.591 -7.228,9.849C-5.777,9.2 -4.71,7.615 -3.838,6.163C-3.237,6.923 -2.66,7.708 -2.109,8.524C-1.313,9.704 0.689,7.832 0,6.811" style="fill:rgb(255,228,153);fill-rule:nonzero;"/>
    </g>
    <g transform="matrix(1.49217,0,0,0.97852,317.656,72.4108)">
        <path d="M0,5.606C-1.115,4.294 -2.408,3.17 -3.721,2.071C-2.667,0.733 -1.576,-0.578 -0.425,-1.845C0.732,-3.121 -0.766,-4.351 -1.909,-3.091C-3.059,-1.825 -4.148,-0.512 -5.205,0.826C-6.398,-0.183 -7.562,-1.222 -8.58,-2.42C-9.394,-3.378 -11.212,-1.305 -10.359,-0.301C-9.313,0.932 -8.109,1.997 -6.879,3.034C-8.041,4.638 -9.145,6.287 -10.146,8.008C-11.064,9.589 -9.004,9.957 -8.241,8.645C-7.363,7.136 -6.396,5.695 -5.386,4.286C-4.112,5.356 -2.862,6.451 -1.779,7.725C-0.966,8.683 0.854,6.61 0,5.606" style="fill:rgb(255,228,153);fill-rule:nonzero;"/>
    </g>
    <g transform="matrix(1.40019,0,0,1.1243,576.023,150.349)">
        <path d="M0,-91.18C-1.086,-92.457 -2.234,-93.652 -3.419,-94.797C-3.001,-96.291 -1.811,-97.939 -1.229,-98.998C0.236,-101.66 1.756,-104.284 3.051,-107.036C4.316,-109.728 6.552,-114.856 3.951,-117.503C1.281,-120.22 -1.577,-119.786 -3.51,-116.874C-6.783,-111.943 -7.642,-105.681 -10.461,-100.502C-12.379,-101.795 -14.374,-102.957 -16.434,-103.996C-16.304,-104.187 -16.228,-104.402 -16.269,-104.604C-17.647,-111.397 -3.678,-123.903 -14.165,-128.757C-16.359,-129.772 -23.529,-132.515 -24.828,-128.531C-25.447,-126.633 -24.867,-124.694 -24.432,-122.81C-23.22,-117.574 -23.152,-112.53 -25.306,-107.586C-26.995,-108.119 -28.71,-108.583 -30.447,-108.977C-30.444,-109.084 -30.461,-109.188 -30.518,-109.282C-32.851,-113.169 -30.617,-116.998 -30.58,-121.102C-30.558,-123.542 -31.974,-125.877 -33.281,-127.813C-35.919,-131.72 -40.558,-135.361 -45.291,-132.955C-48.447,-131.351 -47.827,-128.025 -46.44,-125.458C-43.988,-120.918 -38.254,-115.908 -39.058,-110.359C-42.84,-110.726 -46.666,-110.8 -50.486,-110.588C-49.19,-115.013 -51.359,-121.761 -54.946,-124.592C-58.004,-127.005 -65.12,-130.487 -69.02,-128.335C-72.174,-126.596 -72.25,-124.507 -69.032,-122.822C-67.094,-121.808 -64.918,-121.286 -62.873,-120.534C-58.063,-118.766 -57.742,-114.08 -58.494,-109.741C-68.165,-108.202 -77.508,-104.884 -85.559,-100.029C-113.206,-83.354 -119.603,-48.579 -114.165,-18.939C-114.165,-18.885 -114.164,-18.831 -114.153,-18.779C-114.059,-18.301 -113.965,-17.823 -113.87,-17.344C-113.822,-17.103 -113.719,-16.951 -113.586,-16.864C-113.077,-15.281 -112.476,-13.79 -111.765,-12.413C-111.861,-12.261 -111.929,-12.11 -111.945,-12.001C-113.216,-3.449 -115.043,5.008 -116.258,13.57C-117.164,19.958 -119.054,25.736 -120.363,32.015C-122.207,40.858 -111.047,43.881 -104.022,44.161C-103.525,44.181 -102.912,43.516 -103.058,43.01C-103.975,39.817 -105.885,38 -108.528,36.062C-109.774,35.149 -112.636,33.885 -112.076,31.85C-111.468,29.635 -111.131,27.342 -110.805,25.074C-109.297,14.56 -109.938,4.013 -106.395,-6.072C-104.555,-4.812 -102.362,-3.951 -99.741,-3.588C-101.14,-0.153 -100.793,4.019 -100.512,7.604C-99.97,14.515 -98.03,21.284 -98.48,28.25C-98.75,32.416 -100.223,39.189 -95.332,41.23C-90.451,43.266 -83.429,41.301 -78.396,40.561C-77.799,40.473 -77.386,39.616 -77.771,39.147C-80.046,36.382 -82.853,35.508 -86.21,34.574C-91.546,33.091 -92.606,29.295 -92.654,24.201C-92.739,15.167 -94.241,4.976 -91.707,-3.768C-85.944,-4.752 -80.463,-7.602 -77.666,-12.773C-72.841,-21.696 -74.313,-33.425 -62.03,-36.773C-56.658,-38.237 -51.594,-33.699 -48.024,-30.35C-43.858,-26.443 -40.063,-22.296 -35.577,-18.728C-28.159,-12.827 -17.897,-9.874 -8.838,-13.616C-0.298,-17.143 6.079,-24.606 9.578,-33.044C17.316,-51.704 13.084,-75.796 0,-91.18" style="fill:rgb(30,10,65);fill-rule:nonzero;"/>
    </g>
    <g transform="matrix(1.40019,0,0,1.1243,526.757,116.513)">
        <path d="M0,-14.174C-4.101,-12.08 -5.575,-8.045 -1.356,-5.145C7.416,0.882 11.036,-15.056 0,-14.174" style="fill:rgb(255,228,153);fill-rule:nonzero;"/>
    </g>
    <g transform="matrix(1.40019,0,0,1.1243,573.532,65.6766)">
        <path d="M0,-14.174C-4.1,-12.079 -5.575,-8.045 -1.358,-5.145C7.414,0.882 11.036,-15.056 0,-14.174" style="fill:rgb(255,228,153);fill-rule:nonzero;"/>
    </g>
    <g transform="matrix(1.40019,0,0,1.1243,532.891,120.705)">
        <path d="M0,0.267C1.057,0.168 1.394,0.116 2.487,-0.068C5.901,-0.645 6.903,0.837 8.802,3.243C9.08,3.596 9.518,3.308 9.701,3.002C11.08,0.698 10.41,-0.597 13.73,-0.726C16.994,-0.852 19.807,-1.71 22.201,1.258C22.421,1.531 22.815,1.424 23.007,1.153C23.662,0.223 24.165,-0.388 24.403,-1.556C24.695,-2.982 29.973,-2.993 30.768,-3.041C31.306,-3.074 31.804,-4.185 31.121,-4.144C28.846,-4.006 26.603,-3.561 24.339,-3.317C23.958,-3.276 23.719,-2.987 23.645,-2.627C22.604,2.462 22.224,-2.347 20.535,-2.325C17.255,-2.281 13.902,-1.849 10.609,-1.663C10.253,-1.643 9.954,-1.32 9.915,-0.973C9.319,4.452 8.384,-0.656 6.426,-1.313C4.662,-1.904 2.069,-0.996 0.354,-0.836C-0.181,-0.786 -0.676,0.33 0,0.267" style="fill:rgb(255,228,153);fill-rule:nonzero;"/>
    </g>
    <g transform="matrix(1.40019,0,0,1.1243,428.211,110.529)">
        <path d="M0,-20.183C-2.315,-8.603 -6.948,19.52 12.242,18.858C21.836,18.527 23.49,9.594 26.469,2.315C29.776,-6.287 38.379,-8.272 41.688,-15.882C47.312,-27.792 36.725,-38.379 24.813,-39.041C12.572,-39.703 2.979,-29.777 -0.33,-18.859L0,-20.183Z" style="fill:rgb(255,228,153);fill-rule:nonzero;"/>
    </g>
    <g transform="matrix(1.40019,0,0,1.1243,427.486,110.087)">
        <path d="M0,-19.651C-2.1,-9.052 -5.216,6.066 1.952,15.443C5.119,19.585 11.912,21.059 16.658,19.037C23.329,16.195 25.029,8.867 27.475,2.709C30.909,-5.938 40.748,-9.076 43.711,-18.209C46.185,-25.836 41.13,-32.958 34.771,-36.598C27.59,-40.71 18.876,-39.669 12.06,-35.455C8.822,-33.454 6.222,-30.539 4.032,-27.472C2.918,-25.911 2.042,-24.205 1.217,-22.48C0.797,-21.6 0.469,-20.682 0.126,-19.772C-0.343,-18.525 0.775,-18.864 1.006,-19.789C1.203,-20.578 0.177,-20.383 0.029,-19.791C-0.081,-19.349 -0.191,-18.908 -0.301,-18.466C-0.5,-17.666 0.49,-17.898 0.676,-18.464C3.358,-26.661 8.811,-33.668 16.979,-36.894C24.607,-39.908 33.45,-37.375 39.115,-31.759C46.534,-24.403 42.648,-14.322 35.786,-8.349C31.58,-4.688 28.153,-1.463 26.06,3.81C23.042,11.41 20.697,19.182 10.826,18.651C5.012,18.338 1.503,13.871 -0.044,8.685C-2.743,-0.366 -0.76,-10.875 1.035,-19.928C1.181,-20.666 0.105,-20.182 0,-19.651" style="fill-rule:nonzero;"/>
    </g>
    <g transform="matrix(1.40019,0,0,1.1243,460.701,126.497)">
        <path d="M0,-16.148C-0.697,-13.819 -2.561,-13.695 -4.619,-13.365C-5.446,-13.233 -6.334,-12.825 -6.648,-12.103C-6.763,-12.233 -6.873,-12.37 -6.996,-12.486C-7.4,-12.871 -7.799,-13.165 -8.192,-13.389C-8.052,-15.212 -5.852,-15.943 -4.862,-17.376C-4.017,-18.6 -4.12,-19.889 -5.357,-20.761C-5.886,-21.132 -6.746,-20.084 -6.23,-19.721C-4.233,-18.315 -6.789,-16.697 -7.968,-15.817C-8.678,-15.288 -9.065,-14.605 -9.235,-13.809C-10.145,-14.032 -11.016,-13.874 -11.836,-13.412C-11.677,-14.289 -12.094,-14.917 -13.042,-15.553C-13.648,-15.96 -15.846,-18.561 -14.3,-18.646C-13.711,-18.678 -13.165,-19.893 -13.913,-19.852C-15.438,-19.768 -16.286,-18.686 -15.858,-17.192C-15.659,-16.5 -15.258,-15.836 -14.794,-15.289C-14.136,-14.513 -12.471,-14.063 -13.084,-12.829C-13.174,-12.648 -13.186,-12.502 -13.156,-12.386C-16.811,-8.789 -19.23,0.113 -19.398,2.844C-19.408,2.998 -19.367,3.093 -19.31,3.163C-19.295,3.187 -19.277,3.207 -19.257,3.226C-19.249,3.23 -19.242,3.234 -19.234,3.238C-19.156,3.293 -19.049,3.319 -18.884,3.275C-18.644,3.211 -16.275,4.424 -15.693,4.539C-14.225,4.828 -12.862,4.984 -11.357,4.947C-9.077,4.89 -7.206,4.078 -5.923,2.186C-3.747,-1.02 -3.739,-7.437 -5.89,-11.064C-5.692,-11.244 -5.553,-11.498 -5.605,-11.728C-5.703,-12.148 -2.215,-12.605 -1.754,-12.806C-0.273,-13.451 0.611,-14.617 1.068,-16.145C1.324,-16.999 0.19,-16.783 0,-16.148" style="fill-rule:nonzero;"/>
    </g>
    <g transform="matrix(1.40019,0,0,1.1243,441.817,128.848)">
        <path d="M0,-4.219C-0.743,-2.605 0.125,1.116 2.234,-0.868C3.847,-2.233 2.357,-5.335 0.249,-4.591L0,-4.219Z" style="fill:rgb(255,228,153);fill-rule:nonzero;"/>
    </g>
    <g transform="matrix(1.40019,0,0,1.1243,441.07,128.508)">
        <path d="M0,-3.918C-0.479,-2.794 -0.394,-1.316 0.179,-0.242C0.906,1.122 2.41,0.546 3.253,-0.372C4.22,-1.424 4.255,-3.029 3.355,-4.135C2.914,-4.678 2.315,-4.973 1.618,-5.005C0.853,-5.04 0.459,-4.657 0.067,-4.073C-0.082,-3.85 -0.092,-3.435 0.21,-3.334C0.542,-3.223 0.837,-3.515 1.001,-3.76C1.084,-3.884 1.167,-4.008 1.25,-4.132C1.077,-3.989 0.904,-3.847 0.732,-3.705C2.451,-4.234 3.729,-1.629 2.13,-0.686C1.486,-0.306 1.094,-1.239 0.966,-1.708C0.771,-2.421 0.777,-3.231 1.068,-3.915C1.181,-4.18 1.037,-4.519 0.728,-4.52C0.372,-4.52 0.126,-4.213 0,-3.918" style="fill-rule:nonzero;"/>
    </g>
    <g transform="matrix(1.40019,0,0,1.1243,439.122,118.626)">
        <path d="M0,-0.414C0.241,0.377 0.823,1.113 1.695,1.214C2.65,1.324 3.352,0.514 3.576,-0.335C3.804,-1.196 2.678,-0.983 2.508,-0.338C2.41,0.029 2.322,0.087 1.949,-0.044C1.546,-0.186 1.241,-0.609 1.121,-1.004C0.897,-1.738 -0.173,-0.984 0,-0.414" style="fill:rgb(255,228,153);fill-rule:nonzero;"/>
    </g>
    <g transform="matrix(1.40019,0,0,1.1243,445.717,119.768)">
        <path d="M0,-1.077C-0.105,-0.062 0.474,0.761 1.53,0.786C2.688,0.814 3.551,-0.196 3.736,-1.257C3.791,-1.568 3.501,-1.763 3.222,-1.688C2.883,-1.598 2.663,-1.284 2.605,-0.953C2.535,-0.554 2.209,-0.413 1.833,-0.422C1.3,-0.434 1.083,-0.914 1.131,-1.381C1.163,-1.69 0.912,-1.891 0.616,-1.812C0.294,-1.726 0.034,-1.407 0,-1.077" style="fill:rgb(255,228,153);fill-rule:nonzero;"/>
    </g>
    <g transform="matrix(0.993649,-2.24906e-16,2.55413e-16,1.9216,800.339,150.38)">
        <path d="M0,-51.502C-1.367,-58.876 -4.845,-55.499 -7.045,-51.392C-8.679,-52.218 -9.136,-53.768 -9.892,-55.397C-10.313,-56.306 -11.507,-55.215 -11.675,-54.686C-12.204,-53.015 -12.675,-51.461 -13.645,-50.068C-14.852,-51.588 -15.625,-53.305 -17.086,-54.645C-17.677,-55.187 -18.568,-54.302 -18.731,-53.766C-19.081,-52.631 -19.283,-51.578 -19.421,-50.395C-19.692,-48.083 -22.402,-53.711 -22.33,-53.496C-22.563,-54.186 -23.168,-54.574 -23.874,-54.203C-26.437,-52.857 -28.252,-46.707 -26.259,-44.352C-23.447,-41.03 -14.878,-43.146 -14.28,-38.648C-12.56,-25.71 -31.243,-28.537 -38.91,-26.525C-38.968,-26.51 -39.018,-26.473 -39.072,-26.446C-39.237,-28.086 -39.61,-29.732 -40.221,-31.362C-43.945,-41.292 -56.125,-45.374 -65.433,-47.638C-68.85,-48.469 -72.319,-49.081 -75.81,-49.574C-75.797,-49.624 -75.783,-49.675 -75.777,-49.726C-75.195,-54.661 -70.169,-60.446 -74.156,-65.077C-74.45,-65.418 -75.027,-65.122 -75.294,-64.93C-79.92,-61.612 -80.193,-55.751 -82.437,-50.96C-82.54,-50.741 -82.566,-50.559 -82.564,-50.395C-83.535,-50.497 -84.506,-50.594 -85.477,-50.687C-84.479,-55.694 -78.94,-76.843 -86.392,-75.701C-89.346,-75.249 -90.157,-69.432 -90.562,-67.332C-91.08,-64.642 -91.472,-61.933 -91.867,-59.223C-92.162,-57.201 -92.099,-53.861 -93.309,-52.133C-93.467,-51.907 -93.529,-51.689 -93.549,-51.486C-96.063,-51.798 -98.639,-52.167 -101.209,-52.449C-100.893,-57.065 -98.735,-61.625 -99.187,-66.28C-99.346,-67.923 -100.956,-71.609 -103.163,-69.753C-105.204,-68.037 -105.44,-64.578 -105.787,-62.135C-106.22,-59.083 -106.133,-55.865 -106.735,-52.84C-107.831,-52.864 -108.917,-52.862 -109.979,-52.789C-111.67,-52.672 -113.362,-52.555 -115.054,-52.439C-115.018,-58.403 -117.471,-64.008 -118.793,-69.776C-119.407,-72.453 -120.348,-77.791 -123.718,-78.228C-127.222,-78.684 -127.742,-73.793 -127.084,-71.637C-124.937,-64.607 -119.663,-59.152 -123.47,-51.858C-127.522,-51.579 -131.575,-51.299 -135.627,-51.02C-146.246,-50.736 -156.991,-43.463 -161.619,-33.795C-168.836,-39.663 -189.246,-48.993 -193.053,-34.986C-193.787,-32.284 -193.525,-29.26 -197.245,-28.418C-198.693,-28.089 -199.761,-27.66 -200.822,-26.62C-202.622,-24.858 -202.569,-21.948 -201.962,-19.718C-201.538,-18.157 -199.549,-17.221 -198.202,-18.316C-196.896,-19.377 -195.62,-22.24 -193.9,-19.523C-193.081,-18.229 -192.199,-17.514 -190.811,-16.878C-190.189,-16.593 -189.542,-17.381 -189.356,-17.863C-188.868,-19.129 -188.49,-20.432 -187.814,-21.598C-186.923,-19.727 -185.9,-17.234 -183.565,-17.81C-182.569,-18.055 -181.719,-18.183 -181.186,-19.14C-180.49,-20.391 -180.318,-20.641 -179.074,-19.323C-177.611,-17.775 -175.406,-17.663 -174.093,-19.591C-172.383,-22.103 -173.065,-25.317 -174.321,-27.885C-175.742,-30.791 -180.569,-29.811 -183.065,-29.55C-184.626,-29.386 -184.256,-28.972 -184.288,-31.12C-184.343,-34.838 -180.348,-34.087 -178.571,-33.723C-176.362,-33.272 -174.404,-32.175 -172.617,-30.847C-169.785,-28.74 -166.181,-26.236 -163.726,-27.025C-164.226,-23.716 -163.994,-20.272 -162.807,-16.833C-159.69,-7.797 -149.024,-2.513 -140.688,0.523C-134.923,2.624 -128.853,3.865 -122.718,4.582C-122.685,4.66 -122.643,4.734 -122.58,4.801C-119.62,7.921 -118.871,11.206 -118.367,15.314C-118.041,17.968 -117.545,21.276 -115.748,23.401C-112.547,27.182 -108.951,26.324 -106.628,22.288C-105.56,20.432 -105.834,18.347 -106.316,16.383C-106.466,15.768 -107.345,9.376 -106.384,10.697C-105.792,11.51 -105.375,12.47 -104.83,13.318C-103.353,15.616 -100.569,16.037 -99.192,13.639C-98.038,11.63 -94.956,8.643 -93.896,12.263C-93.366,14.069 -93.93,16.339 -94.165,18.161C-94.375,19.795 -95.059,23.878 -92.443,24.123C-82.661,25.041 -85.109,10.388 -84.77,4.099C-82.115,3.797 -79.464,3.461 -76.814,3.107C-66.315,1.707 -55.803,0.112 -47.525,-7.037C-43.698,-10.342 -40.895,-14.64 -39.666,-19.303C-39.654,-19.302 -39.643,-19.297 -39.631,-19.297C-31.428,-19.481 -19.57,-16.722 -13.008,-23.3C-7.892,-28.428 -7.311,-35.875 -6.563,-42.74C-1.56,-43.413 1.044,-45.867 0,-51.502" style="fill:rgb(30,10,65);fill-rule:nonzero;"/>
    </g>
    <g transform="matrix(0.993649,-2.24906e-16,2.55413e-16,1.9216,660.066,134.624)">
        <path d="M0,-29.303C-9.512,-25.007 -11.659,-14.268 -4.296,-7.211C2.761,-0.767 12.273,-0.154 21.478,0.767C34.671,1.993 47.864,1.993 61.058,1.993C69.649,1.993 82.843,-0.461 88.979,-7.211C105.242,-24.701 67.809,-29.63 59.217,-30.244C37.822,-31.296 19.103,-30.486 3.067,-30.223L0,-29.303Z" style="fill:rgb(255,228,153);fill-rule:nonzero;"/>
    </g>
    <g transform="matrix(0.993649,-2.24906e-16,2.55413e-16,1.9216,671.976,88.1381)">
        <path d="M0,-6.747C-1.521,-6.773 -3.027,-7.024 -4.536,-6.714C-4.75,-6.67 -4.942,-6.541 -5.102,-6.372C-5.157,-6.598 -5.203,-6.826 -5.28,-7.051C-5.642,-8.104 -7.367,-6.594 -7.035,-5.626C-6.472,-3.985 -6.73,-2.163 -6.028,-0.565C-5.183,1.357 -2.618,0.877 -1.028,0.48C-0.444,0.334 -0.091,-0.213 0.018,-0.767C0.357,-2.492 0.61,-4.221 0.631,-5.982C0.637,-6.388 0.449,-6.74 0,-6.747" style="fill-rule:nonzero;"/>
    </g>
    <g transform="matrix(0.993649,-2.24906e-16,2.55413e-16,1.9216,686.221,90.0478)">
        <path d="M0,-7.399C-1.593,-7.787 -3.129,-7.977 -4.758,-7.708C-4.76,-7.708 -4.762,-7.706 -4.765,-7.705C-5.33,-7.726 -6.11,-7.127 -6.11,-6.462L-6.11,-0.632C-6.11,-0.341 -6.034,0.011 -5.7,0.098C-3.865,0.578 -2.061,0.332 -0.97,-1.367C-0.005,-2.868 -0.001,-4.717 0.357,-6.409C0.43,-6.753 0.454,-7.289 0,-7.399" style="fill-rule:nonzero;"/>
    </g>
    <g transform="matrix(0.993649,-2.24906e-16,2.55413e-16,1.9216,701.244,87.9573)">
        <path d="M0,-6.96C-1.388,-6.983 -2.743,-7.12 -4.116,-7.001C-4.553,-7.612 -5.889,-6.86 -5.889,-5.987L-5.889,-0.158C-5.889,0.241 -5.71,0.608 -5.257,0.607C-3.862,0.607 -2.38,0.652 -1.027,0.268C-0.522,0.124 0.019,-0.423 0.019,-0.979C0.021,-2.653 -0.001,-4.342 0.579,-5.936C0.746,-6.394 0.543,-6.951 0,-6.96" style="fill-rule:nonzero;"/>
    </g>
    <g transform="matrix(0.993649,-2.24906e-16,2.55413e-16,1.9216,717.928,88.7215)">
        <path d="M0,-7.323C-1.353,-7.682 -2.731,-8.255 -4.144,-7.938C-4.572,-7.843 -4.421,-8.277 -4.572,-7.843C-5.126,-8.195 -6.724,-7.62 -6.715,-5.529C-6.708,-3.755 -6.418,-2.019 -6.417,-0.249C-6.417,0.031 -6.342,0.409 -6.007,0.481C-4.12,0.893 -1.991,0.954 -0.863,-0.912C0.113,-2.527 -0.098,-4.558 0.357,-6.333C0.446,-6.681 0.441,-7.207 0,-7.323" style="fill-rule:nonzero;"/>
    </g>
    <g transform="matrix(0.993649,-2.24906e-16,2.55413e-16,1.9216,733.265,90.8314)">
        <path d="M0,-5.172C-0.023,-5.508 -0.332,-5.665 -0.622,-5.694C-1.599,-5.795 -2.379,-6.512 -3.384,-6.615C-3.732,-6.651 -4.068,-6.425 -4.311,-6.117C-4.398,-6.478 -4.772,-6.686 -5.158,-6.582C-5.73,-6.429 -6.111,-5.897 -6.205,-5.336C-6.509,-3.503 -6.795,-1.674 -6.818,0.188C-6.822,0.491 -6.737,0.815 -6.408,0.918C-4.726,1.444 -2.859,1.514 -1.511,0.203C-0.058,-1.208 0.135,-3.253 0,-5.172" style="fill-rule:nonzero;"/>
    </g>
    <g transform="matrix(0.993649,-2.24906e-16,2.55413e-16,1.9216,659.835,76.2659)">
        <path d="M0,-7.511C-2.137,-6.401 -2.904,-4.263 -0.707,-2.726C3.864,0.468 5.751,-7.979 0,-7.511" style="fill:rgb(255,228,153);fill-rule:nonzero;"/>
    </g>
    <g transform="matrix(0.993649,-2.24906e-16,2.55413e-16,1.9216,734.371,79.3481)">
        <path d="M0,-7.511C-2.136,-6.402 -2.904,-4.264 -0.707,-2.727C3.864,0.468 5.751,-7.979 0,-7.511" style="fill:rgb(255,228,153);fill-rule:nonzero;"/>
    </g>
    <g transform="matrix(1.00306,0,0,1.00306,582.255,269.886)">
        <path d="M0,60.595C0.206,59.958 -0.178,59.416 -0.857,59.557C-5.887,60.602 -11.093,62.319 -16.276,61.486C-16.304,61.482 -16.332,61.485 -16.359,61.483C-16.791,60.667 -17.257,59.914 -17.741,59.197C-16.963,54.701 -15.019,50.485 -14.883,45.866C-14.861,45.129 -15.455,44.947 -16.054,45.202C-19.916,46.842 -23.87,48.485 -26.621,51.735C-27.568,51.318 -28.548,50.966 -29.553,50.67C-30.827,47.212 -31.231,43.447 -32.8,40.089C-33.125,39.391 -34.032,39.94 -34.364,40.292C-36.994,43.079 -38.482,46.782 -41.364,49.348C-41.382,49.364 -41.396,49.383 -41.413,49.399C-42.068,49.42 -42.728,49.451 -43.391,49.493C-43.884,48.017 -45.025,46.538 -45.765,45.327C-47.038,43.242 -48.398,41.212 -49.667,39.125C-50.27,38.133 -51.501,39.428 -51.589,40.14C-52.094,44.165 -53.454,47.749 -56.049,50.895C-56.124,50.986 -56.162,51.074 -56.211,51.163C-61.166,52.024 -65.944,52.97 -70.17,53.46C-71.385,53.601 -69.13,45.962 -68.912,45.013C-68.396,42.769 -67.979,40.507 -67.422,38.268C-66.124,33.054 -64.729,27.878 -63.92,22.558C-62.612,13.963 -63.938,4.711 -72.891,1.178C-77.264,-0.549 -82.577,-0.205 -85.211,-4.777C-88.064,-9.725 -82.089,-18.004 -81.31,-23.016C-80.275,-29.666 -81.916,-37.146 -85.804,-42.648C-88.346,-46.245 -91.754,-48.655 -95.588,-50.167C-96.685,-56.87 -98.721,-63.176 -101.713,-69.304C-102.182,-70.266 -103.377,-69.1 -103.578,-68.561C-105.604,-63.157 -108.141,-57.931 -109.342,-52.259C-112.476,-52.154 -115.577,-51.731 -118.468,-51.098C-131.307,-48.289 -143.812,-40.526 -150.734,-29.198C-153.329,-24.952 -154.782,-20.076 -155.038,-15.119C-155.059,-14.73 -154.855,-14.379 -154.456,-14.335C-154.316,-10.86 -153.098,-7.551 -151.739,-4.361C-151.387,-3.533 -150.23,-4.367 -149.992,-4.83C-148.597,-7.546 -147.147,-10.222 -145.858,-12.985C-144.77,-11.261 -142.224,-6.844 -141.78,-6.289C-141.228,-5.595 -140.409,-6.177 -140.034,-6.757C-138.842,-8.602 -137.946,-10.505 -137.244,-12.514C-136.107,-10.4 -134.658,-8.548 -132.963,-6.755C-132.356,-6.113 -131.437,-7.189 -131.24,-7.675C-130.292,-10.007 -129.708,-12.615 -128.144,-14.623C-126.606,-11.348 -124.973,-8.134 -123.146,-5.004C-122.792,-4.398 -121.902,-4.751 -121.582,-5.208C-120.336,-6.992 -119.236,-8.738 -118.43,-10.641C-117.733,-8.796 -116.938,-7.059 -115.613,-5.469C-115.23,-5.01 -114.458,-5.557 -114.193,-5.85C-113.022,-7.146 -111.973,-8.532 -110.871,-9.881C-110.739,-7.882 -110.706,-5.883 -110.703,-3.874C-110.702,-3.505 -110.516,-3.01 -110.041,-3.073C-106.782,-3.5 -105.993,-6.669 -103.497,-7.877C-102.564,-5.75 -103.281,-3.253 -104.617,-0.986C-106.807,2.725 -110.485,4.602 -114.488,5.574C-114.506,5.512 -114.528,5.45 -114.563,5.391C-116.088,2.832 -117.411,0.164 -119.062,-2.32C-119.444,-2.897 -120.288,-2.601 -120.626,-2.115C-122.104,0.001 -123.35,2.241 -124.63,4.47C-125.742,2.57 -126.693,0.593 -127.736,-1.355C-128.142,-2.114 -129.237,-1.425 -129.482,-0.886C-130.364,1.044 -131.294,2.809 -132.659,4.396C-133.272,2.917 -133.754,1.419 -134.085,-0.169C-134.277,-1.092 -135.306,-0.631 -135.727,-0.188C-137.168,1.338 -138.518,2.94 -139.996,4.427C-140.911,2.072 -141.663,-0.332 -142.437,-2.738C-142.759,-3.741 -143.89,-3.146 -144.26,-2.493C-144.721,-1.68 -147.099,3.047 -148.597,1.454C-149.982,-0.017 -151.197,-1.711 -152.474,-3.282C-153.071,-4.019 -154.146,-3.301 -154.341,-2.539C-154.648,-1.333 -154.928,-0.12 -155.206,1.093C-156.706,-1.386 -158.919,-3.083 -161.612,-4.745C-162.296,-5.166 -163.144,-4.51 -163.335,-3.824C-164.19,-0.783 -164.077,2.24 -164.034,5.373C-164.077,5.605 -164.049,5.825 -163.914,5.991C-158.821,17.226 -151.867,28.206 -141.253,34.938C-130.868,41.525 -118.847,40.366 -108.246,35.022C-102.891,32.323 -98.396,28.444 -92.616,26.51C-85.354,24.079 -79.768,28.673 -78.66,35.759C-76.9,47.025 -80.968,58.455 -81.146,69.697C-81.279,80.928 -84.123,91.981 -81.646,103.253C-80.209,109.806 -72.031,108.415 -66.99,108.408C-65.715,108.407 -64.42,108.432 -63.116,108.472C-63.281,113.113 -66.808,127.251 -61.171,127.028C-58.182,126.909 -57.193,122.123 -56.703,119.981C-55.89,116.434 -55.935,112.449 -55.027,108.877C-49.815,109.192 -44.498,109.539 -39.256,109.477C-40.511,114.316 -46.69,130.861 -38.892,129.654C-35.565,129.139 -34.381,123.272 -33.782,120.784C-32.857,116.941 -32.412,113.002 -31.989,109.076C-27.31,108.584 -22.764,107.582 -18.491,105.729C-12.293,103.041 -10.934,96.541 -10.535,90.383C-10.508,89.974 -10.492,89.563 -10.477,89.152C-8.535,87.3 -6.38,85.749 -4.161,84.244C-2.798,83.32 -0.426,82.452 -0.426,80.563C-0.426,80.138 -0.612,79.771 -1.088,79.762C-4.167,79.704 -8.417,79.27 -11.23,77.742C-11.464,76.337 -11.745,74.94 -12.075,73.556C-7.498,69.852 -1.889,66.425 0,60.595" style="fill:rgb(30,10,65);fill-rule:nonzero;"/>
    </g>
    <g transform="matrix(1.00306,0,0,1.00306,471.576,240.017)">
        <path d="M0,-12.207C-9.959,-12.782 -9.959,0.575 0.642,-1.995C9.959,-4.244 3.272,-12.324 0,-12.207" style="fill:rgb(255,228,153);fill-rule:nonzero;"/>
    </g>
    <g transform="matrix(-0.985173,0.188608,0.188608,0.985173,472.043,236.849)">
        <path d="M1.329,-8.504C1.288,-5.404 1.717,-2.034 3.39,0.643C4.316,2.124 2.006,2.125 1.329,1.042C-0.543,-1.949 -1.096,-5.756 -1.05,-9.228C-1.03,-10.722 1.344,-9.672 1.329,-8.504" style="fill-rule:nonzero;"/>
    </g>
    <g transform="matrix(1.11511,0,0,1.41578,332.734,330.793)">
        <path d="M0,-45.07C-0.544,-45.276 -1.097,-45.464 -1.656,-45.638L0.093,-45.337C0.057,-45.245 0.022,-45.154 0,-45.07M22.349,-77.076C6.954,-74.592 -12.058,-65.128 -15.19,-48.328C-24.243,-49.825 -33.342,-51.068 -42.465,-52.019C-45.35,-52.319 -48.349,-52.674 -51.391,-52.948C-52.205,-67.706 -65.293,-82.639 -77.704,-89.203C-92.92,-97.251 -112.214,-89.236 -118.872,-73.967C-119.24,-73.123 -119.28,-72.092 -118.145,-71.955C-103.287,-70.159 -85.278,-76.06 -73.367,-64.15C-70.323,-61.107 -68.864,-56.341 -66.72,-53.008C-68.208,-52.821 -69.676,-52.566 -71.112,-52.208C-77.689,-50.565 -80.585,-45.065 -81.985,-39.051C-88.194,-42.576 -106.798,-51.091 -109.571,-40.899C-112.297,-30.885 -89.843,-31.023 -84.256,-29.342C-84.035,-29.278 -83.823,-29.28 -83.618,-29.318C-84.108,-25.67 -84.469,-21.992 -84.693,-18.305C-90.179,-19.041 -113.188,-17.795 -109.96,-9.585C-107.606,-3.598 -97.166,-4.882 -92.435,-5.43C-89.521,-5.768 -87.147,-6.433 -84.937,-8.213C-84.909,-6.17 -84.85,-4.129 -84.72,-2.104C-84.585,-0.011 -84.295,2.064 -83.961,4.132C-83.854,4.786 -83.465,4.999 -83.001,4.946C-82.995,4.946 -82.991,4.948 -82.986,4.949C-78.866,5.426 -75.034,5.688 -70.956,5.672C-65.532,5.651 -66.783,13.667 -67.228,17.014C-67.962,22.533 -69.378,27.938 -70.148,33.45C-70.677,37.219 -71.128,41.812 -68.564,44.953C-62.671,52.181 -59.457,35.868 -59.066,33.078C-58.276,27.47 -57.984,21.789 -57.665,16.139C-57.49,13.041 -57.726,9.374 -57.126,6.174C-49.152,7.091 -41.046,7.696 -33.273,9.746C-28.603,10.979 -29.108,15.372 -29.259,19.565C-29.467,25.323 -30.456,31.029 -30.446,36.798C-30.439,40.922 -28.903,45.099 -25.823,47.919C-22.776,50.708 -18.653,46.844 -17.718,43.911C-16.628,40.496 -18.227,35.708 -18.615,32.262C-19.524,24.21 -18.89,15.901 -18.726,7.768C-12.341,9.872 -2.593,12.781 2.559,8.709C5.689,6.236 7.151,2.16 7.926,-2.132C12.68,0.732 18.243,2.667 23.672,3.179C28.619,3.646 34.285,0.579 34.234,-4.963C34.155,-13.593 14.503,-12.001 8.934,-11.947C8.962,-12.351 8.991,-12.75 9.023,-13.133C9.085,-13.876 9.159,-14.628 9.236,-15.382C13.475,-16.37 17.716,-17.216 21.843,-18.656C25.541,-19.947 30.969,-22.175 31.796,-26.566C32.646,-31.071 28.569,-33.276 24.692,-32.623C19.307,-31.714 15.202,-27.186 10.162,-25.52C10.322,-29.499 10.053,-33.443 8.669,-37.17C7.44,-40.475 5.064,-42.615 2.198,-44.089C2.37,-44.251 2.524,-44.45 2.645,-44.695C12.007,-63.889 40.292,-61.644 57.436,-56.734C58.696,-56.373 59.943,-57.882 59.78,-59.061C57.313,-76.971 36.938,-79.43 22.349,-77.076" style="fill:rgb(30,10,65);fill-rule:nonzero;"/>
    </g>
    <g transform="matrix(1.11511,0,0,1.41578,255.744,325.655)">
        <path d="M0,-36.345C-2.37,-31.605 -5.926,-17.383 -3.556,-12.643C0.396,-4.741 21.729,-4.345 28.839,-3.556C36.74,-2.766 48.195,0.79 55.702,-0.79C63.208,-2.371 68.344,-20.148 65.184,-27.259C62.418,-33.579 38.715,-32.789 31.604,-33.974C22.122,-35.159 10.271,-37.135 1.58,-37.135L0,-36.345Z" style="fill:rgb(255,228,153);fill-rule:nonzero;"/>
    </g>
    <g transform="matrix(1.11511,0,0,1.41578,268.627,310.168)">
        <path d="M0,-1.74C2.898,-4.042 5.862,-4.235 7.915,-1.053C8.248,-0.536 8.286,-0.083 8.815,0.281C9.839,0.983 11.928,0.016 12.795,-0.439C14.508,-1.339 14.838,-3.761 15.853,-0.734C16.284,0.557 18.012,1.978 19.44,1.922C21.375,1.847 22.279,0.579 23.855,-0.439C26.453,-2.116 26.717,-0.677 28.013,1.99C30.291,6.682 35.547,0.635 37.397,-0.949C38.895,-2.231 37.96,-4.792 36.152,-3.245C34.604,-1.919 31.517,1.502 30.241,-1.638C29.78,-2.774 28.137,-4.705 26.883,-4.883C25.265,-5.112 23.479,-3.307 22.304,-2.55C19.17,-0.525 19.161,-3.794 17.452,-5.226C16.567,-5.968 14.891,-6.011 14.014,-5.231C12.526,-3.914 11.607,-1.809 10.216,-3.968C7.342,-8.422 2.073,-6.671 -1.246,-4.034C-2.801,-2.799 -1.857,-0.263 0,-1.74" style="fill-rule:nonzero;"/>
    </g>
    <g transform="matrix(1.11511,0,0,1.41578,263.967,282.645)">
        <path d="M0,3.746C1.438,6.563 4.207,7.577 6.199,4.679C10.337,-1.344 -0.607,-3.831 0,3.746" style="fill-rule:nonzero;"/>
    </g>
    <g transform="matrix(1.11511,0,0,1.41578,305.67,287.871)">
        <path d="M0,3.745C1.437,6.563 4.206,7.576 6.198,4.68C10.337,-1.344 -0.608,-3.831 0,3.745" style="fill-rule:nonzero;"/>
    </g>
    <g transform="matrix(1.50573,0,0,1.50573,796.293,257.348)">
        <path d="M0,56.459C-6.164,57.892 -12.747,58.177 -18.701,55.766C-25.142,53.157 -25.209,45.04 -27.687,39.189C-21.149,38.662 -11.518,46.161 -14.134,52.571C-14.494,53.454 -13.83,54.303 -12.898,54.066C-6.567,52.458 -1.517,48.311 -4.643,41.472C-6.762,36.834 -11.234,32.785 -15.968,29.73C-10.257,28.61 -5.276,24.38 -4.062,18.311C-3.906,17.53 -4.678,16.997 -5.378,17.207C-19.042,21.303 -31.974,17.213 -40.114,5.633C-43.687,0.551 -45.401,-4.773 -46.576,-10.814C-47.603,-16.096 -48.971,-21.37 -52.664,-25.478C-59.538,-33.122 -68.923,-36.283 -78.899,-37.497C-89.439,-38.779 -100.747,-38.143 -110.559,-33.87C-129.083,-25.806 -134.854,-0.422 -127.847,17.076C-123.809,27.163 -114.54,35.028 -106.194,41.499C-96.129,49.301 -84.957,55.689 -73.61,61.423C-70.269,66.031 -70.618,77.925 -74.458,81.906C-74.917,82.381 -75.399,83.983 -74.356,84.176C-70.283,84.926 -64.44,84.386 -62.24,80.184C-61.286,78.359 -60.784,76.536 -61.315,74.501C-61.705,73.01 -64.242,68.605 -63.464,66.85C-60.944,73.912 -56.096,80.484 -49.263,83.863C-44.828,86.055 -40.031,86.967 -35.204,87.876C-33.587,88.181 -32.245,88.586 -30.744,89.234C-29.688,89.691 -26.403,91.195 -27.795,91.826C-29.005,92.376 -29.613,95.238 -27.685,94.664C-23.908,93.539 -19.558,92.753 -17.16,89.309C-14.684,85.752 -16.868,81.649 -20.066,79.57C-24.289,76.827 -30.181,76.659 -35.039,76.143C-39.273,75.693 -43.065,74.471 -46.351,71.698C-50.041,68.583 -49.763,64.742 -48.968,60.717C-44.788,63.13 -43.992,68.945 -38.994,70.855C-34.93,72.406 -30.397,71.354 -27.973,67.761C-27.676,67.32 -27.536,66.392 -28.052,66.032C-31.819,63.402 -35.87,62.195 -36.876,57.197C-37.225,55.464 -37.141,53.906 -37.337,52.483C-30.533,56.074 -27.517,65.298 -19.014,66.909C-11.419,68.348 -1.855,65.567 1.235,57.955C1.601,57.056 0.93,56.243 0,56.459" style="fill:rgb(30,10,65);fill-rule:nonzero;"/>
    </g>
    <g transform="matrix(1.50573,0,0,1.50573,647.122,310.513)">
        <path d="M0,-57.748C-13.675,-54.018 -23.399,-38.439 -20.912,-23.521C-17.804,-4.874 7.06,1.963 23.221,-4.874C38.138,-11.09 44.354,-24.144 36.895,-38.439C29.437,-51.493 19.404,-59.711 5.108,-59.088L0,-57.748Z" style="fill:rgb(255,228,153);fill-rule:nonzero;"/>
    </g>
    <g transform="matrix(1.50573,0,0,1.50573,630.725,272.527)">
        <path d="M0,-11.517C-3.332,-9.815 -4.53,-6.537 -1.103,-4.181C6.026,0.717 8.969,-12.234 0,-11.517" style="fill-rule:nonzero;"/>
    </g>
    <g transform="matrix(1.50573,0,0,1.50573,659.42,254.714)">
        <path d="M0,-11.517C-3.332,-9.815 -4.53,-6.537 -1.103,-4.18C6.025,0.717 8.968,-12.234 0,-11.517" style="fill-rule:nonzero;"/>
    </g>
    <g transform="matrix(1.50573,0,0,1.50573,703.308,249.451)">
        <path d="M0,21.356C-2.833,29.303 -11.667,34.045 -19.38,35.907C-27.888,37.961 -37.87,36.576 -45.535,31.886C-42.685,29.816 -38.958,29.243 -36.653,26.337C-35.393,24.747 -35.427,22.222 -35.614,19.88C-34.52,20.661 -33.546,21.567 -32.515,22.584C-32.154,22.94 -31.551,22.789 -31.16,22.6C-27.257,20.718 -22.534,20.264 -19.239,17.253C-17.17,15.364 -17.355,13.073 -17.941,10.756C-15.368,12.25 -12.861,14.024 -9.835,12.486C-6.586,10.835 -3.229,7.981 -0.957,4.981C1.305,10.139 2.01,15.716 0,21.356M-54.168,23.498C-63.112,9.196 -52.473,-11.159 -37.446,-15.703C-23.408,-19.386 -11.879,-12.065 -4.059,-0.579C-3.326,0.499 -2.657,1.606 -2.051,2.735C-2.314,2.887 -2.559,3.1 -2.751,3.38C-4.371,5.745 -8.725,9.782 -11.679,10.013C-13.876,10.185 -17.214,6.876 -19.549,6.323C-20.704,6.049 -22.066,7.386 -21.81,8.566C-21.431,10.31 -20.837,11.975 -20.412,13.705C-19.738,16.444 -25.448,17.603 -27.031,18.127C-28.22,18.519 -30.372,19.839 -31.287,18.937C-32.839,17.405 -34.506,16.323 -36.487,15.464C-37.472,15.038 -38.783,16.416 -38.762,17.341C-38.7,19.961 -37.459,24.53 -40.162,26.218C-42.62,27.752 -45.413,28.364 -47.594,30.366C-47.621,30.39 -47.642,30.419 -47.667,30.444C-50.232,28.544 -52.459,26.23 -54.168,23.498M1.583,2.419C-1.852,-5.491 -8.661,-12.673 -16.162,-16.784C-22.907,-20.481 -30,-20.572 -37.184,-18.687C-52.996,-13.906 -64.627,5.332 -58.697,21.532C-53.063,36.925 -34.381,41.928 -19.641,38.891C-2.369,35.334 8.875,19.217 1.583,2.419" style="fill-rule:nonzero;"/>
    </g>
    <g transform="matrix(1.35393,0,0,1.32108,901.283,253.767)">
        <path d="M0,69.178C0.001,69.179 0.002,69.18 0.002,69.181C0.003,69.18 -0.003,69.181 0,69.178M65.808,-8.947C56.743,-23.622 39.302,-34.055 22.803,-38.018C2.592,-42.873 -19.913,-40.406 -40.025,-36.385C-51.301,-35.585 -62.426,-30.491 -68.913,-20.922C-75.982,-10.493 -77.17,3.793 -71.285,15.009C-66.037,25.01 -54.561,31.828 -46.072,38.784C-36.043,47.003 -26.733,56.846 -26.234,70.519C-26.19,71.703 -24.777,71.092 -24.56,70.29C-23.815,67.539 -21.897,65.452 -20.059,63.363C-19.186,64.163 -18.328,64.98 -17.48,65.806C-19.535,70.335 -20.269,75.308 -19.434,80.263C-19.029,82.664 -17.966,85.013 -17.271,87.341C-17.167,87.742 -17.063,88.144 -16.961,88.545C-16.032,91.393 -17.964,92.939 -22.756,93.183C-22.778,92.298 -22.248,91.406 -22.422,90.509C-22.905,88.009 -20.645,84.207 -25.079,84.201C-28.726,84.198 -30.218,87.655 -30.695,90.709C-31.792,97.728 -22.028,103.879 -16.019,100.522C-12.51,98.562 -10.902,95.657 -11.111,91.679C-11.197,90.045 -11.94,88.287 -12.401,86.734C-13.243,83.894 -12.819,81 -12.231,78.159C-11.54,74.818 -10.673,71.484 -9.338,68.338C-9.217,68.052 -9.294,67.777 -9.481,67.6C-8.886,66.957 -8.277,66.326 -7.66,65.7C-6.395,67.128 -5.032,68.457 -3.791,69.908C-3.53,70.213 -3.007,69.949 -2.77,69.776C-2.37,69.482 -1.952,69.145 -1.516,68.81C2.545,74.745 -3.366,79.063 -6.224,84.224C-7.958,87.357 -7.339,91.864 -3.85,93.571C-0.132,95.389 1.243,96.705 1.087,101.337C1.017,103.413 0.163,106.153 1.103,108.155C2.931,112.051 8.209,110.856 10.881,108.591C13.257,106.578 14.959,102.59 12.613,100.018C11.844,99.174 9.672,98.696 8.674,99.22C7.563,99.803 6.555,104.826 5.692,101.25C4.405,95.916 9.592,90.663 2.731,88.185C-2.021,86.468 4.236,79.202 5.258,76.535C6.281,73.864 5.333,70.638 4.91,67.778C6.099,68.416 7.27,69.309 8.307,69.908C8.808,70.199 9.448,69.862 9.681,69.355C10.129,68.382 10.583,67.437 11.019,66.481C11.104,66.567 11.188,66.655 11.273,66.737C11.28,66.897 11.316,67.051 11.429,67.178C14.465,70.614 15.342,74.608 15.134,79.106C15.009,81.821 13.734,83.66 14.078,86.407C14.185,87.254 14.906,88.748 15.986,88.8C17.237,88.861 19.841,88.28 19.847,90.681C19.849,91.365 19.407,92.249 19.598,92.94C21.255,98.925 29.345,100.714 34.073,97.458C39.851,93.48 37.233,83.009 29.733,84.232C25.653,84.896 25.631,92.036 30.566,89.507C30.757,90.64 30.54,91.781 29.903,92.929C28.351,93.015 26.797,93.1 25.244,93.186C24.944,92.333 24.761,91.457 24.694,90.559C24.471,88.805 24.505,87.026 24.291,85.268C24.062,83.388 19.029,81.369 18.841,82.084C20.665,75.153 23.21,70.435 18.487,63.999C22.756,56.308 29.41,50.897 37.992,47.808C47.573,44.36 56.801,42.215 64.75,35.432C77.318,24.707 73.501,3.507 65.808,-8.947" style="fill:rgb(30,10,65);fill-rule:nonzero;"/>
    </g>
    <g transform="matrix(1.35393,0,0,1.32108,861.218,253.052)">
        <path d="M0,-18.275C-4.837,-21.761 -12.563,-21.731 -17.343,-18.175C-17.37,-18.159 -17.397,-18.136 -17.425,-18.118C-17.473,-18.082 -17.525,-18.05 -17.572,-18.013C-17.584,-18.004 -17.592,-17.994 -17.604,-17.985C-17.639,-17.956 -17.673,-17.921 -17.708,-17.888C-17.776,-17.825 -17.842,-17.76 -17.899,-17.692C-17.907,-17.683 -17.915,-17.676 -17.923,-17.668C-22.82,-11.851 -22.625,-4.974 -16.03,-0.607C-10.297,3.192 -1.675,3.486 3.275,-1.628C8.094,-6.606 4.862,-14.77 0,-18.275" style="fill:rgb(255,228,153);fill-rule:nonzero;"/>
    </g>
    <g transform="matrix(1.35393,0,0,1.32108,906.927,229.226)">
        <path d="M0,19.021C5.211,18.688 10.253,13.598 10.524,8.414C10.525,8.389 10.521,8.371 10.522,8.347C10.524,8.316 10.52,8.286 10.519,8.255C10.517,8.207 10.52,8.153 10.513,8.11L10.513,8.108C9.671,2.95 6.147,-0.351 0.789,0.294C-3.865,0.854 -9.358,4.745 -10.244,9.576C-11.357,15.651 -5.507,19.372 0,19.021" style="fill:rgb(255,228,153);fill-rule:nonzero;"/>
    </g>
    <g transform="matrix(1.35393,0,0,1.32108,882.956,219.303)">
        <path d="M0,12.587C3.448,12.366 6.785,8.998 6.965,5.566C6.967,5.523 6.952,5.5 6.95,5.461C6.95,5.43 6.962,5.397 6.957,5.365C6.4,1.95 4.068,-0.232 0.522,0.195C-2.558,0.566 -6.193,3.141 -6.779,6.338C-7.516,10.358 -3.645,12.819 0,12.587" style="fill:rgb(255,228,153);fill-rule:nonzero;"/>
    </g>
    <g transform="matrix(1.35393,0,0,1.32108,896.912,293.223)">
        <path d="M0,-1.856C-0.558,-5.27 -2.89,-7.455 -6.436,-7.028C-9.516,-6.656 -13.149,-4.082 -13.736,-0.884C-14.475,3.136 -10.601,5.599 -6.956,5.366C-3.509,5.144 -0.172,1.777 0.008,-1.655C0.01,-1.699 -0.005,-1.721 -0.007,-1.76C-0.007,-1.792 0.005,-1.825 0,-1.856" style="fill:rgb(255,228,153);fill-rule:nonzero;"/>
    </g>
    <g transform="matrix(1.35393,0,0,1.32108,881.097,244.392)">
        <path d="M0,15.934C4.366,15.655 8.589,11.39 8.818,7.046C8.819,7.026 8.816,7.011 8.816,6.992C8.818,6.964 8.814,6.938 8.813,6.912C8.812,6.871 8.813,6.827 8.809,6.79C8.103,2.468 5.149,-0.296 0.66,0.245C-3.24,0.714 -7.842,3.974 -8.584,8.022C-9.518,13.112 -4.614,16.23 0,15.934" style="fill:rgb(255,228,153);fill-rule:nonzero;"/>
    </g>
    <g transform="matrix(1.35393,0,0,1.32108,914.498,272.471)">
        <path d="M0,-2.027C0.004,-2.082 0,-2.136 -0.006,-2.19C-0.007,-2.205 -0.006,-2.222 -0.008,-2.237L-0.008,-2.238C-0.743,-6.75 -3.824,-9.635 -8.509,-9.071C-12.578,-8.581 -17.38,-5.178 -18.154,-0.955C-19.128,4.357 -14.012,7.608 -9.198,7.3C-4.643,7.01 -0.236,2.56 0.002,-1.972C0.003,-1.993 0,-2.007 0,-2.027" style="fill:rgb(255,228,153);fill-rule:nonzero;"/>
    </g>
    <g transform="matrix(1.35393,0,0,1.32108,862.672,265.053)">
        <path d="M0,-1.619C-0.485,-4.598 -2.521,-6.504 -5.614,-6.131C-8.302,-5.806 -11.473,-3.56 -11.983,-0.771C-12.627,2.736 -9.25,4.885 -6.069,4.683C-3.061,4.49 -0.149,1.551 0.007,-1.443C0.009,-1.481 -0.004,-1.502 -0.006,-1.536C-0.006,-1.563 0.005,-1.592 0,-1.619" style="fill:rgb(255,228,153);fill-rule:nonzero;"/>
    </g>
    <g transform="matrix(1.35393,0,0,1.32108,939.847,220.505)">
        <path d="M0,15.936C4.366,15.658 8.59,11.393 8.818,7.049C8.819,7.029 8.816,7.013 8.816,6.994C8.818,6.968 8.813,6.943 8.813,6.917C8.812,6.876 8.814,6.831 8.809,6.794L8.809,6.793C8.104,2.471 5.151,-0.294 0.662,0.247C-3.238,0.716 -7.84,3.975 -8.582,8.024C-9.516,13.114 -4.613,16.23 0,15.936" style="fill:rgb(255,228,153);fill-rule:nonzero;"/>
    </g>
    <g transform="matrix(-0.609787,1.1795,1.20883,0.594993,936.708,278.843)">
        <path d="M11.038,-13.817C16.031,-15.458 19.436,-10.442 19.612,-6.092C19.808,-1.273 15.544,3.839 11.038,5.089C10.804,5.154 10.6,5.165 10.42,5.143C-1.914,5.699 2.367,-10.967 11.038,-13.817" style="fill:rgb(255,228,153);fill-rule:nonzero;"/>
    </g>
    <g transform="matrix(1.35393,0,0,1.32108,958.855,263.621)">
        <path d="M0,-3.321C0.003,-3.372 -0.005,-3.421 -0.006,-3.471C-0.009,-3.534 -0.006,-3.604 -0.014,-3.661L-0.014,-3.663C-1.214,-11.019 -6.239,-15.723 -13.879,-14.802C-20.518,-14.003 -28.35,-8.456 -29.613,-1.565C-31.202,7.098 -22.856,12.402 -15.004,11.901C-7.571,11.426 -0.386,4.166 0.003,-3.227C0.005,-3.262 -0.001,-3.288 0,-3.321" style="fill:rgb(255,228,153);fill-rule:nonzero;"/>
    </g>
    <g transform="matrix(1.35393,0,0,1.32108,845.49,245.034)">
        <path d="M0,-6.51C-1.488,-5.26 -1.702,-3.406 -1.501,-1.803C-1.102,0.902 1.303,1.604 3.709,1.303C6.312,1.003 9.117,-0.6 8.817,-3.606C8.518,-6.109 5.812,-8.114 3.409,-7.814C2.404,-7.713 1.403,-7.314 0.604,-6.912L0,-6.51Z" style="fill-rule:nonzero;"/>
    </g>
    <g transform="matrix(1.35393,0,0,1.32108,912.397,241.48)">
        <path d="M0,0.113C0.008,-1.404 -0.999,-2.541 -2.066,-3.306C-3.897,-4.562 -5.548,-3.597 -6.594,-2.083C-7.744,-0.456 -8.213,1.994 -6.249,3.471C-4.591,4.675 -2.003,4.255 -0.956,2.741C-0.505,2.122 -0.235,1.34 -0.067,0.671L0,0.113Z" style="fill-rule:nonzero;"/>
    </g>
    <g transform="matrix(1.35393,0,0,1.32108,886.578,227.409)">
        <path d="M0,0.078C0.006,-0.928 -0.662,-1.679 -1.368,-2.186C-2.581,-3.017 -3.671,-2.378 -4.365,-1.376C-5.125,-0.3 -5.435,1.322 -4.137,2.298C-3.038,3.095 -1.326,2.817 -0.634,1.816C-0.335,1.407 -0.156,0.89 -0.045,0.446L0,0.078Z" style="fill-rule:nonzero;"/>
    </g>
    <g transform="matrix(1.35393,0,0,1.32108,891.113,291.789)">
        <path d="M0,0.076C0.006,-0.928 -0.66,-1.681 -1.367,-2.188C-2.579,-3.019 -3.672,-2.38 -4.364,-1.378C-5.125,-0.303 -5.436,1.321 -4.136,2.299C-3.038,3.095 -1.325,2.816 -0.634,1.814C-0.336,1.405 -0.155,0.888 -0.044,0.445L0,0.076Z" style="fill-rule:nonzero;"/>
    </g>
    <g transform="matrix(1.35393,0,0,1.32108,885.678,254.652)">
        <path d="M0,0.098C0.009,-1.174 -0.836,-2.128 -1.73,-2.768C-3.266,-3.82 -4.648,-3.014 -5.524,-1.744C-6.487,-0.381 -6.881,1.672 -5.235,2.911C-3.845,3.918 -1.677,3.566 -0.802,2.298C-0.423,1.781 -0.196,1.125 -0.056,0.564L0,0.098Z" style="fill-rule:nonzero;"/>
    </g>
    <g transform="matrix(1.35393,0,0,1.32108,906.826,270.857)">
        <path d="M0,0.103C0.009,-1.225 -0.873,-2.218 -1.806,-2.888C-3.406,-3.986 -4.851,-3.143 -5.765,-1.82C-6.77,-0.397 -7.179,1.746 -5.463,3.039C-4.012,4.089 -1.75,3.722 -0.836,2.4C-0.441,1.858 -0.204,1.175 -0.059,0.588L0,0.103Z" style="fill-rule:nonzero;"/>
    </g>
    <g transform="matrix(1.35393,0,0,1.32108,857.611,263.803)">
        <path d="M0,0.068C0.007,-0.81 -0.576,-1.466 -1.191,-1.908C-2.249,-2.633 -3.201,-2.077 -3.807,-1.202C-4.469,-0.263 -4.741,1.152 -3.606,2.007C-2.648,2.701 -1.154,2.458 -0.552,1.583C-0.291,1.227 -0.135,0.777 -0.036,0.389L0,0.068Z" style="fill-rule:nonzero;"/>
    </g>
    <g transform="matrix(1.35393,0,0,1.32108,880.618,272.857)">
        <path d="M0,6.542C4.908,2.097 -1.31,-1.847 -7.594,-1.454C-12.264,-1.098 -13.971,2.128 -11.32,5.258C-8.671,8.389 -2.383,8.251 0,6.542" style="fill:rgb(255,228,153);fill-rule:nonzero;"/>
    </g>
    <g transform="matrix(1.35393,0,0,1.32108,881.075,271.178)">
        <path d="M0,8.434C2.816,5.658 2.966,2.388 -0.712,0.324C-3.866,-1.447 -9.57,-2.036 -12.339,0.792C-14.833,3.341 -13.496,7.111 -10.529,8.666C-7.516,10.246 -3.145,10.47 -0.202,8.569C0.576,8.066 0.598,6.366 -0.472,7.057C-3.984,9.328 -11.04,8.308 -12.065,3.668C-13.305,-1.937 5.774,0.831 -0.674,7.192C-1.42,7.926 -0.918,9.34 0,8.434" style="fill:rgb(255,228,153);fill-rule:nonzero;"/>
    </g>
    <g transform="matrix(1.35393,0,0,1.32108,876.286,275.034)">
        <path d="M0,2.963C0.871,2.359 0.979,1.483 0.844,0.734C0.578,-0.532 -0.857,-0.831 -2.282,-0.659C-3.828,-0.482 -5.479,0.305 -5.268,1.716C-5.064,2.887 -3.438,3.794 -2.013,3.619C-1.419,3.559 -0.826,3.359 -0.354,3.159L0,2.963Z" style="fill-rule:nonzero;"/>
    </g>
    <g transform="matrix(1.35393,0,0,1.32108,944.43,230.77)">
        <path d="M0,0.098C0.009,-1.175 -0.836,-2.128 -1.73,-2.768C-3.266,-3.82 -4.648,-3.014 -5.524,-1.745C-6.486,-0.382 -6.881,1.673 -5.234,2.911C-3.845,3.918 -1.678,3.567 -0.801,2.297C-0.424,1.78 -0.196,1.126 -0.056,0.564L0,0.098Z" style="fill-rule:nonzero;"/>
    </g>
    <g transform="matrix(1.35393,0,0,1.32108,929.094,287.257)">
        <path d="M0,3.199C0.901,2.131 0.787,0.862 0.405,-0.175C-0.281,-1.909 -2.13,-1.995 -3.835,-1.412C-5.686,-0.796 -7.494,0.717 -6.835,2.672C-6.253,4.292 -3.991,5.194 -2.29,4.611C-1.573,4.383 -0.904,3.958 -0.378,3.561L0,3.199Z" style="fill-rule:nonzero;"/>
    </g>
    <g transform="matrix(1.35393,0,0,1.32108,946.339,260.981)">
        <path d="M0,0.167C0.015,-2 -1.422,-3.621 -2.946,-4.713C-5.558,-6.503 -7.911,-5.129 -9.404,-2.97C-11.043,-0.648 -11.712,2.846 -8.912,4.953C-6.545,6.67 -2.855,6.069 -1.363,3.91C-0.723,3.029 -0.334,1.915 -0.097,0.96L0,0.167Z" style="fill-rule:nonzero;"/>
    </g>
    <g transform="matrix(1.29104,0,0,1.40255,199.164,293.658)">
        <path d="M0,8.46C-0.184,1.295 -8.312,2.706 -13.291,5.441C-11.838,1.817 -10.376,-1.463 -12.356,-5.474C-12.526,-5.817 -12.989,-5.935 -13.332,-5.815C-19.045,-3.831 -20.937,0.461 -22.01,5.844C-30.256,6.277 -38.239,8.897 -46.553,8.346C-52.524,7.951 -61.637,6.232 -64.738,0.498C-64.162,-6.796 -66.534,-14.51 -70.12,-20.496C-73.128,-25.517 -76.927,-31.694 -72.843,-37.313C-70.635,-40.352 -65.073,-42.367 -61.393,-41.625C-58.693,-41.081 -56.086,-36.921 -54.168,-35.143C-50.16,-31.426 -38.679,-30.599 -36.341,-36.894C-34.592,-41.605 -35.773,-47.464 -39.599,-50.77C-46.141,-56.422 -58.055,-54.479 -65.683,-53.459C-74.752,-52.246 -81.276,-46.312 -83.404,-37.478C-84.542,-32.755 -84.586,-28.661 -83.121,-24.12C-82.486,-22.151 -81.417,-20.542 -84.133,-21.344C-86.524,-22.051 -88.788,-23.523 -90.926,-24.75C-93.8,-26.4 -96.352,-27.955 -99.664,-28.422C-102.852,-28.872 -106.206,-28.392 -109.381,-28.07C-111,-27.905 -112.616,-27.761 -114.24,-27.654C-117.732,-27.423 -116.436,-30.416 -115.903,-32.909C-114.684,-38.624 -111.085,-43.527 -109.976,-49.242C-109.09,-53.799 -112.021,-57.932 -115.246,-60.745C-121.306,-66.03 -133.167,-68.555 -140.713,-65.377C-148.6,-62.055 -149.235,-54.071 -141.562,-50.08C-138.029,-48.242 -134.548,-49.379 -131.301,-51.127C-128.998,-52.367 -126.747,-54.16 -124.071,-54.45C-119.445,-54.952 -120.102,-47.51 -120.631,-45.042C-121.883,-39.198 -125.091,-33.774 -126.882,-28.077C-128.515,-22.884 -131.402,-18.033 -132.538,-12.74C-132.545,-12.705 -132.545,-12.676 -132.551,-12.642C-132.576,-12.569 -132.594,-12.495 -132.604,-12.42C-133.237,-7.361 -133.252,-2.534 -132.133,1.836C-132.278,1.966 -132.409,2.126 -132.509,2.328C-136.467,10.234 -141.483,16.792 -143.062,25.682C-144.376,33.086 -143.656,40.985 -141.506,48.239C-145,45.942 -147.909,44.14 -151.241,49.174C-153.528,52.631 -149.591,54.878 -146.23,56.432C-150.159,57.301 -154.601,58.972 -154.247,62.909C-153.792,67.946 -147.986,67.3 -143.482,66.031C-145.646,69.671 -145.221,74.381 -139.91,75.644C-134.145,77.015 -131.552,70.085 -131.246,65.034C-127.635,66.045 -122.893,65.678 -121.006,62.108C-118.245,56.882 -125.639,56.534 -128.962,56.212C-132.722,55.848 -132.869,47.391 -133.194,44.583C-133.929,38.211 -133.44,31.784 -131.909,25.566C-130.771,20.949 -126.701,18.629 -125.351,14.398C-125.2,13.927 -125.165,13.446 -125.204,12.961C-124.367,13.671 -123.473,14.357 -122.471,14.999C-113.125,20.985 -100.485,23.276 -89.554,22.419C-80.997,21.749 -71.482,17.379 -67.285,9.535C-67.195,9.858 -67.068,10.177 -66.887,10.489C-65.213,13.379 -59.501,15.021 -56.579,15.81C-51.591,17.156 -46.095,16.588 -41.049,15.983C-39.69,15.82 -24.132,13.711 -24.674,15.596C-25.887,19.809 -29.78,29.162 -21.522,29.329C-18.382,29.393 -17.212,25.428 -16.774,22.002C-14.151,25.029 -10.19,27.878 -7.243,24.08C-4.075,19.997 -5.336,17.206 -8.356,15.244C-4.161,14.539 0.111,12.784 0,8.46" style="fill:rgb(30,10,65);fill-rule:nonzero;"/>
    </g>
    <g transform="matrix(1.29104,0,0,1.40255,41.8652,301.019)">
        <path d="M0,-19.884C3.125,-21.304 7.102,-22.44 10.51,-21.02C13.919,-19.317 14.771,-15.623 17.896,-14.203C24.997,-11.363 33.518,-17.896 40.051,-18.748C48.857,-19.884 55.675,-11.647 49.141,-4.545C42.608,2.556 34.37,1.136 27.553,-3.693C19.032,-9.374 14.771,-2.556 5.966,-3.409C0.284,-3.977 -6.874,-16.249 -0.91,-19.373L0,-19.884Z" style="fill:rgb(255,228,153);fill-rule:nonzero;"/>
    </g>
    <g transform="matrix(1.29104,0,0,1.40255,58.5302,280.084)">
        <path d="M0,-3.778C0.188,-4.07 0.339,-4.67 0.105,-4.984C-1.334,-6.916 -3.295,-7.83 -5.687,-7.924C-6.216,-7.944 -6.229,-7.798 -7.145,-7.556C-8.706,-7.009 -9.556,-6.597 -9.252,-5.476C-8.464,-2.57 -8.588,0.486 -7.458,3.308C-7.115,4.166 -5.984,3.441 -5.614,3.068C-3.527,0.956 -1.611,-1.278 0,-3.778" style="fill-rule:nonzero;"/>
    </g>
    <g transform="matrix(1.29104,0,0,1.40255,93.9959,285.679)">
        <path d="M0,-10.734C2.315,-10.752 4.355,-10.559 5.792,-8.648C6.041,-8.317 5.853,-7.754 5.687,-7.442C4.154,-4.554 1.659,-2.703 -0.764,-0.613C-1.125,-0.301 -2.097,0.018 -2.338,-0.639C-3.323,-3.314 -4.079,-6.941 -4.145,-9.807C-4.145,-9.807 -2.077,-10.718 0,-10.734" style="fill-rule:nonzero;"/>
    </g>
    <g transform="matrix(1.29104,0,0,1.40255,88.369,303.253)">
        <path d="M0,-8.334C-0.432,-9.139 -1.416,-8.521 -1.844,-8.094C-3.244,-6.694 -4.682,-5.313 -6.392,-4.294C-6.965,-3.953 -7.494,-3.291 -7.368,-2.577C-7.29,-2.141 -7.368,-2.577 -6.725,-1.759C-6.757,-1.392 -6.443,-1.255 -6.021,-1.122C-3.905,-0.456 -2.089,0.805 0.218,0.624C1.122,0.554 1.909,-0.336 1.795,-1.254C1.492,-3.688 1.175,-6.143 0,-8.334" style="fill-rule:nonzero;"/>
    </g>
    <g transform="matrix(1.29104,0,0,1.40255,55.6984,284.496)">
        <path d="M0,9.164C1.528,9.13 3.313,8.519 4.8,8.172C5.666,7.971 6.323,6.911 5.99,6.072C5.086,3.788 3.703,1.795 1.844,0.183C1.084,-0.475 0.046,0.602 -0.187,1.268C-1.039,3.698 -2.381,5.872 -3.738,8.045C-4.734,9.639 -3.019,9.315 -1.63,9.285L0,9.164Z" style="fill-rule:nonzero;"/>
    </g>
    <g transform="matrix(1.29104,0,0,1.40255,143.657,238.41)">
        <path d="M0,-8.872C-2.34,-10.559 -6.066,-10.542 -8.386,-8.833C-8.41,-8.82 -8.432,-8.806 -8.455,-8.789C-8.477,-8.773 -8.503,-8.762 -8.526,-8.745C-8.563,-8.716 -8.583,-8.68 -8.615,-8.648C-8.642,-8.622 -8.669,-8.608 -8.696,-8.577C-11.072,-5.755 -10.977,-2.418 -7.777,-0.299C-4.996,1.544 -0.812,1.687 1.59,-0.794C3.927,-3.21 2.359,-7.171 0,-8.872" style="fill:rgb(255,228,153);fill-rule:nonzero;"/>
    </g>
    <g transform="matrix(1.29104,0,0,1.40255,20.5605,216.182)">
        <path d="M0,-7.636C-0.112,-7.6 -0.231,-7.537 -0.365,-7.407C-0.497,-7.32 -0.585,-7.213 -0.655,-7.101C-2.19,-5.352 -3.089,-2.161 -1.27,-0.292C0.619,1.647 4.163,1.234 6.255,-0.172C8.555,-1.717 9.506,-4.897 7.396,-7.08C5.267,-9.283 2.455,-9.117 0,-7.636" style="fill:rgb(255,228,153);fill-rule:nonzero;"/>
    </g>
    <g transform="matrix(1.29104,0,0,1.40255,23.1351,212.19)">
        <path d="M0,-2.146C-0.491,-1.734 -0.562,-1.122 -0.495,-0.593C-0.362,0.298 0.429,0.529 1.223,0.43C2.082,0.332 3.007,-0.197 2.907,-1.188C2.808,-2.014 1.916,-2.675 1.124,-2.575C0.793,-2.542 0.462,-2.41 0.199,-2.279L0,-2.146Z" style="fill-rule:nonzero;"/>
    </g>
    <g transform="matrix(1.29104,0,0,1.40255,136.381,234.275)">
        <path d="M0,-3.16C-0.722,-2.554 -0.826,-1.653 -0.729,-0.876C-0.535,0.437 0.632,0.778 1.799,0.631C3.064,0.486 4.424,-0.292 4.279,-1.751C4.133,-2.966 2.82,-3.938 1.654,-3.792C1.167,-3.743 0.681,-3.549 0.292,-3.354L0,-3.16Z" style="fill-rule:nonzero;"/>
    </g>
    <g transform="matrix(1.22904,0,0,1.11544,976.317,44.5674)">
        <path d="M0,99.557C12.981,87.316 18.388,68.834 17.56,51.115C16.72,33.161 7.789,16.544 -8.181,7.834C-24.069,-0.832 -42.908,-2.306 -60.676,-1.763C-61.728,-1.731 -62.779,-1.683 -63.831,-1.635C-60.349,-8.45 -56.596,-15.111 -51.937,-21.207C-48.279,-25.99 -42.556,-29.061 -39.51,-34.257C-32.864,-34.308 -26.234,-34.583 -19.617,-35.234C-17.94,-35.399 -12.275,-37.096 -11.084,-35.364C-8.765,-31.994 -7.283,-27.92 -9.193,-24.046C-11.682,-18.999 -17.895,-15.382 -21.675,-11.264C-24.937,-7.711 -32.815,-18.471 -36.242,-22.462C-34.231,-24.276 -31.645,-25.461 -29.355,-26.956C-27.974,-26.021 -26.838,-24.941 -25.86,-23.601C-27.215,-22.486 -28.619,-21.141 -28.424,-19.562C-28.15,-17.35 -24.879,-19.574 -25.094,-21.314C-24.867,-19.485 -23.946,-21.351 -22.835,-22.379C-22.216,-22.952 -21.473,-24.036 -21.996,-24.913C-23.453,-27.354 -25.159,-29.121 -27.613,-30.587C-28.31,-31.003 -28.985,-30.799 -29.607,-30.328C-32.995,-27.761 -36.972,-26.368 -39.67,-22.959C-40.19,-22.301 -40.626,-21.184 -39.885,-20.507C-35.032,-16.072 -31.767,-9.447 -25.492,-6.82C-21.712,-5.238 -17.905,-11.27 -15.845,-13.238C-12.271,-16.652 -7.557,-19.687 -5.746,-24.535C-3.702,-30.009 -5.948,-34.866 -9.091,-39.431C-9.445,-39.947 -9.89,-40.015 -10.476,-39.917C-20.108,-38.299 -29.875,-37.856 -39.629,-37.824C-40.415,-37.821 -41.264,-37.2 -41.59,-36.497C-43.284,-32.834 -46.602,-30.624 -49.567,-28.055C-52.104,-25.859 -54.123,-23.049 -56.09,-20.356C-60.402,-14.452 -63.884,-7.964 -67.174,-1.45C-75.662,-0.92 -84.144,0.121 -92.504,1.588C-92.82,1.644 -93.139,1.703 -93.456,1.761C-93.014,1.159 -92.758,0.429 -92.973,-0.179C-95.282,-6.735 -101.709,-12.338 -106.892,-16.615C-111.17,-20.145 -118.106,-25.416 -124.074,-23.486C-129.802,-21.633 -136.556,-18.142 -141.081,-14.138C-146.58,-9.273 -138.517,-0.546 -136.374,3.931C-136.024,4.661 -135.144,4.494 -134.558,4.245C-129.471,2.085 -124.146,0.613 -118.858,-0.96C-117.873,-1.254 -117.169,-2.142 -117.025,-3.145C-116.632,-5.875 -116.979,-8.416 -117.579,-11.098C-117.658,-11.451 -117.886,-11.871 -118.282,-11.953C-124.33,-13.209 -132.025,-12.646 -130.588,-4.507C-130.301,-2.88 -128.504,-3.69 -127.699,-4.697C-126.021,-5.003 -124.584,-8.345 -126.736,-8.25C-126.883,-8.243 -127.019,-8.225 -127.158,-8.211C-126.553,-9.51 -124.623,-9.109 -123.056,-8.985C-120.167,-8.755 -119.932,-6.388 -120.17,-3.948C-124.752,-2.589 -129.32,-1.217 -133.757,0.565C-135.044,-1.904 -136.635,-4.214 -137.972,-6.658C-139.928,-10.233 -139.9,-11.687 -136.652,-13.709C-132.887,-16.053 -127.429,-19.999 -122.885,-20.308C-117.08,-20.702 -110.703,-14.694 -106.729,-11.168C-102.647,-7.544 -97.948,-3.006 -96.069,2.259C-104.813,4.021 -113.542,6.733 -120.856,11.913C-136.047,22.672 -134.843,43 -132.72,59.368C-132.693,66.455 -131.747,75.838 -125.488,80.293C-118.931,84.959 -111.375,74.37 -109.989,69.147C-107.679,60.434 -119.641,23.936 -100.438,29.393C-94.512,31.078 -90.355,37.422 -87.28,42.307C-82.95,49.187 -79.619,56.7 -76.396,64.143C-73.219,71.483 -70.281,78.924 -67.003,86.221C-64.875,90.957 -62.641,96.23 -58.903,99.957C-56.812,102.043 -54.257,103.834 -51.453,105.338C-51.457,105.353 -51.464,105.366 -51.467,105.38C-51.476,105.421 -51.483,105.463 -51.492,105.504C-51.512,105.584 -51.531,105.664 -51.541,105.744C-52.858,111.895 -53.523,118.039 -53.675,124.305C-57.834,125.078 -61.13,127.331 -63.865,130.826C-64.483,131.615 -64.927,133.515 -63.357,133.525C-56.185,133.568 -49.022,134.019 -41.849,134.063C-40.693,134.07 -39.274,132.597 -39.61,131.395C-41.68,124.003 -42.932,116.796 -41.89,109.17C-38.313,110.209 -34.704,110.88 -31.393,111.182C-30.678,111.247 -29.961,111.282 -29.243,111.303C-29.341,117.181 -28.868,122.964 -27.943,128.766C-31.922,130.297 -34.789,133.176 -36.855,137.117C-37.441,138.233 -37.07,139.572 -35.621,139.314C-28.558,138.06 -21.432,137.212 -14.368,135.958C-13.199,135.751 -12.125,134.092 -12.679,132.977C-16.208,125.866 -19.949,118.542 -20.679,110.548C-16.498,109.699 -12.441,108.175 -8.75,106.086C-7.625,112.831 -2.249,117.855 0,124.236C-3.854,125.789 -6.654,128.623 -8.678,132.487C-9.262,133.603 -8.893,134.942 -7.442,134.684C-0.379,133.43 6.746,132.582 13.809,131.328C14.961,131.124 16.073,129.455 15.498,128.347C10.763,119.215 1.099,110.207 0,99.557" style="fill:rgb(30,10,65);fill-rule:nonzero;"/>
    </g>
    <g transform="matrix(1.22904,0,0,1.11544,850.513,68.4196)">
        <path d="M0,-11.518C-3.331,-9.815 -4.529,-6.538 -1.103,-4.181C6.025,0.717 8.97,-12.235 0,-11.518" style="fill:rgb(255,228,153);fill-rule:nonzero;"/>
    </g>
    <g transform="matrix(1.22904,0,0,1.11544,871.726,66.9213)">
        <path d="M0,-11.517C-3.332,-9.816 -4.53,-6.538 -1.103,-4.181C6.025,0.717 8.968,-12.234 0,-11.517" style="fill:rgb(255,228,153);fill-rule:nonzero;"/>
    </g>
</svg>
